<svg xmlns="http://www.w3.org/2000/svg" width="1200" height="800" viewBox="0 0 1200 800" role="img" aria-label="Community leadership photos">
  <defs>
    <linearGradient id="g" x1="0" y1="0" x2="1" y2="1">
      <stop offset="0" stop-color="#1f3c88" stop-opacity="0.14"/>
      <stop offset="1" stop-color="#1f3c88" stop-opacity="0.03"/>
    </linearGradient>
  </defs>
  <rect width="1200" height="800" fill="#f7f8fb"/>
  <rect x="80" y="80" width="1040" height="640" rx="28" fill="url(#g)" stroke="#d7deef"/>
  <path d="M170 220h860" stroke="#1f3c88" stroke-opacity="0.25" stroke-width="10" stroke-linecap="round"/>
  <g fill="none" stroke="#1f3c88" stroke-opacity="0.55" stroke-width="10" stroke-linecap="round" stroke-linejoin="round">
    <path d="M480 420c0 30 25 55 55 55s55-25 55-55-25-55-55-55-55 25-55 55Z"/>
    <path d="M610 420c0 30 25 55 55 55s55-25 55-55-25-55-55-55-55 25-55 55Z"/>
    <path d="M420 560c40-90 320-90 360 0"/>
  </g>
  <text x="120" y="660" font-family="ui-sans-serif, system-ui, -apple-system, Segoe UI, Roboto, Arial" font-size="34" fill="#1b2235" opacity="0.9">Community Leadership</text>
</svg>
